<svg xmlns="http://www.w3.org/2000/svg" width="171" height="43" fill="none">
    <path fill="#60C"
        d="M0 20c0-5.6 0-8.4 1.09-10.54a10 10 0 0 1 4.37-4.37C7.6 4 10.4 4 16 4c5.6 0 8.4 0 10.54 1.09a10 10 0 0 1 4.37 4.37C32 11.6 32 14.4 32 20c0 5.6 0 8.4-1.09 10.54a10.001 10.001 0 0 1-4.37 4.37C24.4 36 21.6 36 16 36c-5.6 0-8.4 0-10.54-1.09a10 10 0 0 1-4.37-4.37C0 28.4 0 25.6 0 20Z" />
    <path fill="#F8F8F9" d="M25 15.107 16 9l-9 6.107V27.32h13.23L25 31V15.107Z" />
    <path fill="#000" fill-rule="evenodd"
        d="M40.703 5.79h5.358V17h2.546V5.79h5.358V3.51H40.703v2.28Zm16.334 9.747c.19.38 1.235 1.672 3.325 1.672 2.508 0 4.56-1.881 4.56-5.016s-2.052-5.016-4.56-5.016c-2.052 0-3.154 1.368-3.306 1.729v-1.52h-2.413v13.642h2.394v-5.491Zm-.02-3.344c0-1.653 1.065-2.888 2.718-2.888 1.672 0 2.736 1.235 2.736 2.888 0 1.634-1.064 2.888-2.736 2.888-1.653 0-2.717-1.254-2.717-2.888Zm9.117 0c0-2.983 2.09-5.054 5.035-5.054 2.964 0 5.035 2.052 5.035 5.187v.266h-7.638c.095 1.5 1.197 2.64 2.793 2.64 1.54 0 2.166-.778 2.337-1.044h2.394c-.152.988-1.463 3.059-4.73 3.059-3.117 0-5.226-2.166-5.226-5.054Zm7.524-1.273c-.36-1.216-1.254-1.9-2.489-1.9-1.31 0-2.223.703-2.527 1.9h5.016ZM77.972 17h2.413v-3.876h4.598V17h2.413V7.386h-2.413v3.667h-4.598V7.386h-2.413V17Zm13.91-2.071h4.465V9.457h-3.268l-.171 1.387c-.247 2.147-.513 3.268-1.026 4.085Zm-1.235 2.07v2.832H88.5v-4.902h1.045c.55-.798.93-2.014 1.178-4.218l.399-3.325h7.638v7.543h1.672v4.902h-2.147V17h-7.638Zm47.773 21h-2.394v-9.613h2.394v6.44l4.826-6.44h2.413V38h-2.413v-6.46L138.42 38Zm1.406-13.85c0 .589.304 1.159 1.045 1.159.741 0 1.045-.57 1.045-1.16v-.322h1.919v.36c0 1.616-.931 2.908-2.964 2.908s-2.964-1.292-2.964-2.907v-.361h1.919v.323Zm-88.008 13.85h2.565V24.51h-2.565v5.568h-7.41V24.51h-2.546V38h2.546v-5.643h7.41V38Zm9.852-9.86c-2.964 0-5.187 2.128-5.187 5.054s2.223 5.054 5.187 5.054c2.926 0 5.168-2.128 5.168-5.054s-2.242-5.054-5.168-5.054Zm0 7.942c-1.615 0-2.736-1.292-2.736-2.888 0-1.596 1.12-2.888 2.736-2.888 1.615 0 2.717 1.254 2.717 2.888s-1.102 2.888-2.717 2.888ZM74.297 38h-5.624v-9.614h5.586c1.957 0 3.344.874 3.344 2.546 0 1.159-.741 1.88-1.463 2.09.893.247 1.748.93 1.748 2.204 0 1.672-1.33 2.774-3.591 2.774Zm.912-6.802c0-.627-.513-.97-1.33-.97h-2.793v2.015h2.793c.779 0 1.33-.304 1.33-1.045Zm.209 3.819c0-.59-.437-1.007-1.444-1.007h-2.888v2.147h2.888c.969 0 1.444-.38 1.444-1.14Zm8.969-6.878c-2.964 0-5.187 2.128-5.187 5.054s2.223 5.054 5.187 5.054c2.926 0 5.168-2.128 5.168-5.054s-2.242-5.054-5.168-5.054Zm0 7.942c-1.615 0-2.736-1.292-2.736-2.888 0-1.596 1.12-2.888 2.736-2.888 1.615 0 2.717 1.254 2.717 2.888s-1.102 2.888-2.717 2.888Zm11.297-7.942c3.42 0 4.579 2.375 4.731 3.42h-2.413l-.012-.02c-.17-.277-.767-1.253-2.268-1.253-1.482 0-2.508 1.292-2.508 2.907S94.22 36.1 95.74 36.1c1.507 0 2.065-.898 2.267-1.222l.032-.051h2.375c-.095 1.007-1.273 3.42-4.712 3.42-2.793 0-4.96-2.09-4.96-5.054 0-2.964 2.148-5.054 4.94-5.054Zm9.057 9.86h2.413v-7.542h3.724v-2.071h-9.88v2.07h3.743V38Zm13.322.21c-2.09 0-3.135-1.292-3.325-1.672v5.49h-2.394V28.387h2.413v1.52c.152-.361 1.254-1.73 3.306-1.73 2.508 0 4.56 1.882 4.56 5.017 0 3.135-2.052 5.016-4.56 5.016Zm-.627-7.904c-1.653 0-2.717 1.235-2.717 2.888 0 1.634 1.064 2.888 2.717 2.888 1.672 0 2.736-1.254 2.736-2.888 0-1.653-1.064-2.888-2.736-2.888Zm11.587-2.166c-2.964 0-5.187 2.128-5.187 5.054s2.223 5.054 5.187 5.054c2.926 0 5.168-2.128 5.168-5.054s-2.242-5.054-5.168-5.054Zm0 7.942c-1.615 0-2.736-1.292-2.736-2.888 0-1.596 1.121-2.888 2.736-2.888 1.615 0 2.717 1.254 2.717 2.888s-1.102 2.888-2.717 2.888ZM148.088 38h2.394v-4.313L155.118 38h3.23l-5.358-5.016 5.111-4.598h-3.173l-4.446 4.047v-4.047h-2.394V38Zm13.568 0h-2.394v-9.614h2.394v6.44l4.826-6.44h2.413V38h-2.413v-6.46L161.656 38Z"
        clip-rule="evenodd" />
</svg>
